<?xml version="1.0" encoding="utf-8"?>
<svg xmlns="http://www.w3.org/2000/svg" viewBox="2.032 0 451.233 400.435">
  <g id="Layer_1" transform="matrix(1.149903, 0, 0, 1.149903, -49.990754, -322.288027)" style="">
    <path fill="#1B6067" opacity="1.000000" stroke="none" d="M 405.094 513.804 C 402.683 521.053 406.102 528.827 402.257 535.635 C 395.561 547.491 347.664 592.295 330.036 598.858 C 318.962 602.981 259.606 614.825 247.698 613.052 C 234.038 611.017 180.915 587.923 173.927 580.899 C 166.344 573.278 159.49 567.503 159.99 555.169 C 180.58 545.256 201.804 544.537 223.422 551.682 C 232.17 554.573 240.802 557.977 249.733 560.123 C 289.496 569.677 320.847 555.589 346.061 524.991 C 352.682 516.958 360.236 511.512 371.539 512.234 C 382.4 512.928 393.542 513.806 405.094 513.804 Z" style="stroke-width: 1;"/>
    <path fill="#42797F" opacity="1.000000" stroke="none" d="M 194.358 492.557 C 198.038 499.198 204.38 504.707 207.625 511.589 C 207.255 512.117 199.863 512.306 199.429 512.315 C 144.433 513.466 145.046 512.173 137.46 515.979 C 129.802 523.678 175.904 570.323 184.015 577.38 C 191.508 583.899 199.575 588.093 208.583 591.277 C 209.857 591.727 237.557 601.633 252.625 603.433 C 264.579 604.861 277.021 604.803 289.056 603.517 C 300.848 602.256 312.862 599.932 323.936 595.809 C 341.564 589.246 356.178 577.612 370.328 565.129 C 380.715 555.967 389.525 545.912 396.221 534.056 C 400.066 527.248 402.48 519.631 405.539 512.379 C 407.423 504.9 409.02 497.131 410.366 489.551 C 414.257 467.632 415.33 448.338 410.105 427.653 C 409.672 425.936 408.027 421.08 406.735 417.74 C 415.062 410.539 425.062 416.494 432.163 417.797 C 433.577 423.865 435.043 431.182 435.85 437.329 C 440.891 475.702 433.786 511.625 413.573 544.81 C 391.426 581.17 360.304 605.497 320.258 619.044 C 300.371 625.771 279.768 628.544 259.021 626.783 C 221.804 623.625 188.718 609.927 159.907 585.67 C 142.156 570.725 129.291 552.97 117.994 532.451 C 114.648 526.374 103.079 494.27 114.396 494.171 C 149.216 493.866 163.704 494.298 194.358 492.557 Z" style="stroke-width: 1;"/>
    <path fill="#F59F6A" opacity="1.000000" stroke="none" d="M 408.099 420.801 C 398.568 420.856 388.929 421.783 379.548 420.625 C 374.267 419.973 368.327 416.949 364.572 413.135 C 354.412 402.815 345.885 390.866 335.559 380.737 C 321.819 367.259 304.621 360.044 285.631 356.773 C 260.301 352.41 237.668 359.223 216.745 372.941 C 209.997 377.365 203.761 382.657 197.697 388.012 C 192.698 392.428 187.256 394.54 180.622 394.466 C 173.532 394.387 151.97 393.172 146.399 392.781 C 151.561 388.026 253.92 314.603 263.195 308.561 C 269.29 304.592 276.05 305.344 281.782 309.521 C 300.246 322.976 396.214 396.934 403.666 409.003 C 405.832 412.51 406.658 416.845 408.099 420.801 Z" style="stroke-width: 1;"/>
    <path fill="#BA6B3F" opacity="1.000000" stroke="none" d="M 407.423 420.918 C 405.62 416.845 405.832 412.51 403.666 409.003 C 396.214 396.934 300.246 322.976 281.782 309.521 C 276.05 305.344 269.29 304.592 263.195 308.561 C 253.92 314.603 175.045 372.728 166.024 379.856 C 160.539 384.19 154.977 388.425 149.256 393.101 C 142.114 395.218 137.145 390.816 134.898 385.985 C 132.746 381.358 133.978 375.202 139.163 371.342 C 150.172 363.143 222.546 308.711 248.549 290.893 C 268.308 277.353 279.302 279.444 296.746 292.449 C 325.246 313.697 354.178 334.366 382.596 355.722 C 396.859 366.441 413.07 375.439 421.789 391.972 C 426.214 400.363 429.031 409.602 432.51 418.974 C 425.197 419.959 417.948 420.427 410.133 421.04 C 409.319 421.135 408.033 421.085 407.423 420.918 Z" style="stroke-width: 1;"/>
    <path fill="#42797F" opacity="1.000000" stroke="none" d="M 196.58 434.303 C 196.073 440.278 194.057 447.865 192.752 454.339 C 163.672 453.268 169.489 453.288 157.955 453.085 C 153.141 453 148.013 449.342 144.033 446.477 C 134.381 439.529 124.482 431.211 115.86 424.582 C 104.815 416.09 103.818 406.18 103.841 395.291 C 103.862 385.28 103.947 358.846 103.944 357.558 C 103.921 348.881 101.977 349.914 95.957 345.253 C 76.59 330.258 79.452 303.131 101.229 292.084 C 121.862 281.618 145.246 296.561 146.254 319.011 C 146.885 333.058 140.605 342.525 128.78 349.34 C 126.636 350.575 124.614 355.151 124.545 357.641 C 124.146 371.957 124.158 385.18 124.523 399.497 C 124.593 402.247 126.158 405.769 128.229 407.519 C 137.643 415.471 147.321 423.143 157.283 430.393 C 159.906 432.302 163.854 432.945 167.248 433.123 M 113.144 309.082 C 105.594 310.152 101.368 317.985 104.923 325.928 C 107.498 331.679 112.209 333.073 117.747 332.002 C 123.037 330.979 127.349 324.507 126.765 319.327 C 125.981 312.368 122.331 309.364 113.144 309.082 Z" style="stroke-width: 1;"/>
    <path fill="#42797F" opacity="1.000000" stroke="none" d="M 190.484 461.014 C 191.718 467.032 190.06 473.423 190.89 480.539 C 172.658 481.089 127.162 480.885 109.003 481.187 C 106.46 481.229 101.132 483.135 99.576 485.226 C 90.918 496.862 78.16 502.045 65.628 498.412 C 53.61 494.928 45.104 483.299 44.334 469.3 C 43.772 459.076 54.488 444.434 64.661 441.526 C 78.598 437.542 92.777 442.557 98.823 454.664 C 101.703 460.431 107.126 462.257 113.329 462.031 M 68.847 461.175 C 67.633 462.77 63.38 464.651 63.491 469.109 C 63.63 474.673 65.404 477.064 70.109 478.964 C 76.216 481.431 82.051 479.369 83.496 473.243 C 84.249 470.051 83.681 465.515 81.815 462.983 C 79.091 459.287 74.402 458.347 68.847 461.175 Z" style="stroke-width: 1;"/>
    <path fill="#813615" opacity="1.000000" stroke="none" d="M 191.117 491.992 C 190.261 488.716 189.404 485.441 188.587 481.055 C 187.731 473.423 186.834 466.9 185.938 460.378 C 186.372 457.996 186.807 455.614 187.427 452.202 C 188.741 445.195 189.871 439.219 191 433.244 C 196.075 423.475 199.865 412.71 206.5 404.152 C 219.107 387.892 235.762 376.799 256.535 373.084 C 281.251 368.665 303.027 375.1 321.888 391.424 C 326.858 395.726 331.292 400.655 335.892 405.374 C 339.529 409.104 340.038 412.379 335.183 415.977 C 330.316 419.583 326.078 424.035 321.543 428.092 C 317.282 431.903 313.755 430.873 309.755 427.13 C 303.855 421.61 298.005 415.557 291.028 411.765 C 273.202 402.077 247.249 409.235 235.149 425.669 C 227.688 435.802 223.015 447.057 222.837 459.374 C 222.423 487.984 240.891 512.048 271.699 513.513 C 287.349 514.258 300.365 507.079 309.959 494.454 C 314.793 488.095 318.269 487.142 324.675 491.943 C 330.262 496.131 335.49 500.846 340.506 505.709 C 341.583 506.752 341.953 509.966 341.159 511.281 C 328.578 532.118 310.101 544.856 286.242 549.121 C 255.648 554.591 230.505 543.746 209.492 521.838 C 206.699 518.926 204.209 515.722 201.097 511.936 C 197.449 504.81 194.283 498.401 191.117 491.992 Z" style="stroke-width: 1;"/>
  </g>
</svg>