<svg version="1.1" id="Layer_1" xmlns="http://www.w3.org/2000/svg" xmlns:xlink="http://www.w3.org/1999/xlink" x="0px" y="0px"
	 width="100%" viewBox="0 0 600 600" enable-background="new 0 0 600 600" xml:space="preserve">
<path fill="#000000" opacity="1.000000" stroke="none" 
	d="
M387.000000,601.000000 
	C258.000000,601.000000 129.500000,601.000000 1.000000,601.000000 
	C1.000000,401.000000 1.000000,201.000000 1.000000,1.000000 
	C201.000000,1.000000 401.000000,1.000000 601.000000,1.000000 
	C601.000000,201.000000 601.000000,401.000000 601.000000,601.000000 
	C529.833313,601.000000 458.666656,601.000000 387.000000,601.000000 
M212.931152,215.984726 
	C215.169830,216.317337 217.407440,216.919571 219.647385,216.928299 
	C224.844864,216.948532 230.045273,216.520889 235.241104,216.578766 
	C240.102951,216.632904 244.091431,215.085022 247.755768,211.848831 
	C252.199844,207.924026 256.770081,204.045654 261.715759,200.803085 
	C277.050018,190.749329 293.637390,185.756027 312.201965,188.953583 
	C326.120026,191.350815 338.724091,196.638977 348.793762,206.516373 
	C356.361908,213.939987 362.611420,222.697571 370.057465,230.261261 
	C372.809448,233.056702 377.163239,235.272873 381.033600,235.750504 
	C387.909180,236.598984 394.973328,235.919464 402.488739,236.050995 
	C402.670868,236.087646 402.852966,236.124298 403.019531,236.989822 
	C403.147583,238.295639 403.111023,239.643051 403.428772,240.900955 
	C407.258301,256.060974 407.022186,271.303375 404.170258,286.541748 
	C403.132355,292.087494 401.463226,297.515076 399.132507,303.000824 
	C391.140686,303.000580 383.123444,303.398773 375.164093,302.890289 
	C366.879486,302.361023 361.343140,306.352356 356.491150,312.240387 
	C338.012085,334.665314 315.034302,344.990356 285.892456,337.987976 
	C279.346985,336.415192 273.020508,333.920349 266.609222,331.801605 
	C250.765198,326.565552 235.210526,327.091949 219.630554,333.468414 
	C215.662949,327.962555 211.695343,322.456696 207.867889,317.145325 
	C220.487396,307.813934 233.062698,300.315948 249.024841,302.949890 
	C249.338394,303.001648 249.680542,302.880096 250.600952,303.197235 
	C252.528397,305.446503 254.352600,307.794769 256.399780,309.929199 
	C271.800262,325.985870 290.227905,333.933807 312.650085,329.925049 
	C330.136353,326.798737 343.677673,317.463104 352.898163,302.191864 
	C353.479950,301.228241 353.208771,298.872803 352.420013,298.108215 
	C348.743195,294.544067 344.912201,291.088348 340.817352,288.019470 
	C336.122284,284.500732 333.574402,285.198792 330.032074,289.859894 
	C323.000519,299.112183 313.460938,304.373718 301.991608,303.828094 
	C279.412079,302.754059 265.877228,285.117767 266.180176,264.149384 
	C266.310608,255.122711 269.735992,246.873703 275.203827,239.447342 
	C284.071991,227.402695 303.093048,222.157074 316.157196,229.256927 
	C321.270599,232.035873 325.558685,236.472260 329.882111,240.517761 
	C332.813782,243.261002 335.399109,244.016449 338.521790,241.223236 
	C341.845764,238.249954 344.951752,234.987122 348.518494,232.344086 
	C352.077026,229.707123 351.703430,227.306641 349.038208,224.572952 
	C345.666534,221.114685 342.417114,217.502075 338.774567,214.349319 
	C324.951721,202.385193 308.991760,197.668900 290.877777,200.907944 
	C275.653503,203.630280 263.446716,211.760757 254.207153,223.677658 
	C249.344055,229.949921 246.566696,237.839355 241.934723,244.999084 
	C236.434799,244.999466 230.924408,245.198990 225.439697,244.910446 
	C222.951904,244.779572 220.058258,244.308380 218.136215,242.909546 
	C210.834656,237.595581 203.741959,231.973175 196.842484,226.144897 
	C195.324432,224.862549 194.177628,222.281418 194.126251,220.266098 
	C193.858765,209.772949 193.850250,199.265198 194.142578,188.773392 
	C194.193420,186.948425 195.674805,184.411179 197.246185,183.505646 
	C205.912735,178.511429 210.515289,171.572556 210.053101,161.277832 
	C209.314423,144.824570 192.176086,133.872482 177.054382,141.543472 
	C161.094330,149.639771 158.995529,169.521515 173.190689,180.510910 
	C177.602371,183.926300 180.986008,186.842148 179.044083,192.875168 
	C178.754868,193.773666 179.059372,194.859726 179.070999,195.859207 
	C179.153671,202.968384 178.983978,210.091309 179.376907,217.183151 
	C179.818375,225.151016 179.076706,233.307175 187.777603,238.650421 
	C195.157776,243.182617 201.351227,249.605545 208.425491,254.697678 
	C211.341965,256.796936 215.112442,258.512665 218.628326,258.807678 
	C225.739395,259.404358 232.941879,258.911438 240.092789,259.648560 
	C239.774231,261.394165 239.455673,263.139740 238.641876,265.624298 
	C227.174957,265.749298 215.700836,265.677826 204.244659,266.096558 
	C199.698349,266.262756 197.189926,264.924561 195.079102,260.697510 
	C190.648087,251.824112 180.256287,248.148880 170.041931,251.068573 
	C162.586136,253.199768 154.732086,263.931152 155.144287,271.423981 
	C155.708740,281.684143 161.942825,290.207245 170.750366,292.760315 
	C179.935394,295.422760 189.285355,291.624237 195.631058,283.096161 
	C196.771423,281.563568 199.210648,280.166870 201.073898,280.135925 
	C214.382721,279.915161 227.697678,280.064728 241.049454,280.853058 
	C241.677368,283.253662 242.305283,285.654297 242.179077,287.714935 
	C235.492126,285.849518 228.824112,286.900818 222.924118,289.757507 
	C212.422562,294.842072 202.285370,300.707153 192.168488,306.545044 
	C187.853485,309.034973 187.037781,313.175385 189.341171,317.707367 
	C196.984314,332.745514 207.049622,345.758057 220.059372,356.711639 
	C241.174454,374.489594 265.423737,384.528320 292.699921,386.843079 
	C307.904816,388.133423 323.004913,386.101471 337.579956,381.170959 
	C366.929901,371.242340 390.289459,353.689331 406.520905,327.041168 
	C421.334930,302.720032 426.542053,276.391937 422.847748,248.268494 
	C422.255920,243.763184 420.838379,239.366318 419.896576,234.162170 
	C417.299194,227.671890 415.234650,220.900620 411.991547,214.750870 
	C405.601379,202.633484 393.720978,196.039307 383.267181,188.183182 
	C362.440277,172.531586 341.235596,157.383591 320.348450,141.810959 
	C307.563782,132.279221 299.505859,130.747040 285.024567,140.670197 
	C265.966888,153.729263 247.613464,167.818130 229.000366,181.522766 
	C220.899536,187.487305 212.924347,193.622177 204.855682,199.630798 
	C201.056183,202.460251 200.153122,206.972137 201.730423,210.363235 
	C203.377197,213.903702 207.018997,217.129776 212.931152,215.984726 
M349.394470,421.963135 
	C349.751038,422.312317 350.126556,422.644348 350.461029,423.013580 
	C352.459351,425.219574 360.822754,426.296509 361.031250,424.408020 
	C361.323639,421.758911 359.637787,418.811737 358.484863,416.126556 
	C358.086426,415.198486 356.830688,414.527710 355.832733,413.985748 
	C349.035767,410.294159 341.944916,409.911865 334.815338,412.735352 
	C328.252716,415.334320 325.686646,419.969635 326.005402,427.720856 
	C326.237183,433.356659 329.425720,437.288361 335.728821,439.330505 
	C339.954865,440.699738 344.410828,441.461334 348.476929,443.175598 
	C350.297424,443.943085 352.135742,446.201385 352.610016,448.118591 
	C352.956818,449.520508 351.493042,451.959229 350.131866,453.081299 
	C346.447968,456.118195 337.533264,453.711243 334.894653,449.487305 
	C334.250031,448.455414 332.762817,447.315826 331.672913,447.325623 
	C329.263306,447.347321 326.860016,448.068237 324.460510,448.502777 
	C324.252930,453.349243 325.743195,456.967590 328.915161,459.349823 
	C336.727905,465.217346 349.096130,465.609070 357.456726,460.253662 
	C366.199921,454.653259 366.023102,440.745667 356.794434,436.093109 
	C352.017609,433.684845 346.576050,432.584656 341.417267,430.948822 
	C338.912140,430.154480 336.216736,429.117096 337.169952,426.001160 
	C337.772278,424.032288 339.567230,421.637054 341.366760,421.028473 
	C343.553223,420.289062 346.307465,421.228699 349.394470,421.963135 
M98.066078,427.871674 
	C105.864159,418.415497 113.277870,418.587372 122.195419,427.651337 
	C123.631386,429.110870 127.604469,428.376556 130.305603,427.980469 
	C130.737320,427.917175 131.442673,423.864807 130.663605,422.359253 
	C125.946259,413.242889 115.364922,409.074219 105.035515,411.414886 
	C92.731239,414.203094 83.329109,424.145782 85.027023,441.207611 
	C85.972122,450.704803 92.221252,460.958923 105.436020,463.722656 
	C115.007317,465.724396 126.520699,460.709137 131.409073,452.079803 
	C133.915756,447.654785 133.074768,446.212799 128.119308,445.965393 
	C124.825302,445.800995 122.410103,446.488434 120.035103,449.286743 
	C114.331757,456.006653 105.536980,455.900909 99.765961,449.158295 
	C94.431801,442.926056 95.055267,435.784454 98.066078,427.871674 
M372.501434,425.008057 
	C368.949188,424.595184 368.977448,426.924896 368.984131,429.431366 
	C369.022644,443.896667 368.991852,458.362183 369.024231,472.827545 
	C369.027069,474.095551 369.316437,475.362915 369.461029,476.535706 
	C378.770081,477.755859 379.030975,477.539642 379.022980,468.990509 
	C379.020477,466.298920 379.022583,463.607300 379.022583,460.402191 
	C391.108246,468.757965 402.639160,460.983978 405.220520,450.685608 
	C408.326111,438.295746 403.621277,427.030090 393.053497,424.833557 
	C388.427521,423.872009 383.162140,425.986542 378.445953,426.666870 
	C376.915558,426.165436 375.141785,425.584229 372.501434,425.008057 
M419.814789,441.016174 
	C412.155579,443.791412 410.041443,446.213074 410.001617,452.256622 
	C409.963409,458.058868 412.097900,461.977539 417.970367,463.229828 
	C422.057922,464.101501 426.619385,462.772186 430.966064,462.390839 
	C431.954102,462.304169 432.956726,461.838440 433.905334,461.949860 
	C436.696259,462.277649 439.463379,462.807709 442.144012,463.243042 
	C442.597382,461.957825 442.895355,461.502655 442.898743,461.045319 
	C442.954315,453.560760 443.004272,446.075836 442.990936,438.591125 
	C442.976013,430.209290 436.878052,424.109131 428.114044,424.038818 
	C420.851166,423.980560 410.956879,428.927124 411.467712,437.266602 
	C417.218048,438.663361 417.415649,438.617249 421.615814,434.897797 
	C426.230072,430.811646 432.149200,432.498199 433.657104,438.693512 
	C429.298279,439.445679 424.966370,440.193207 419.814789,441.016174 
M292.016205,425.096039 
	C279.875519,421.269196 268.345917,427.998718 266.261810,440.798645 
	C264.774231,449.934662 269.038879,460.903778 280.513489,463.663422 
	C289.984619,465.941193 300.944122,460.833679 303.279449,450.396698 
	C305.452301,440.685699 303.683411,431.041931 292.016205,425.096039 
M488.927582,456.373566 
	C498.522095,468.984283 516.265320,465.063812 520.288757,453.205109 
	C516.415039,451.569031 512.894714,449.152374 508.981445,454.001740 
	C507.779083,455.491699 503.267883,455.576843 501.010712,454.599213 
	C498.691284,453.594635 497.274963,450.504974 495.463440,448.327759 
	C495.848633,447.848083 496.233826,447.368408 496.619049,446.888733 
	C504.538757,446.888733 512.458435,446.888733 520.255554,446.888733 
	C522.143127,437.533295 518.851501,429.921936 511.699646,426.329193 
	C503.866089,422.393982 495.016815,423.945312 489.545685,431.126099 
	C483.656769,438.855194 484.433441,447.378845 488.927582,456.373566 
M156.104889,424.032166 
	C139.895615,423.588684 130.376770,437.763489 136.999405,453.860626 
	C139.853363,460.797607 145.748108,463.557068 152.757156,463.932373 
	C160.162415,464.328918 166.095337,461.823547 170.117340,454.930908 
	C176.266678,444.392578 173.007965,428.063934 156.104889,424.032166 
M178.000000,451.476196 
	C178.000000,455.212219 178.000000,458.948212 178.000000,462.563446 
	C187.852722,463.609161 187.916351,463.581238 188.009018,454.758575 
	C188.055756,450.310028 187.788757,445.852234 187.984161,441.412720 
	C188.207993,436.327515 191.537598,432.581665 195.338226,433.115479 
	C200.152771,433.791748 201.095963,437.301697 201.027267,441.541534 
	C200.914841,448.480652 200.996841,455.422943 200.996841,462.522461 
	C204.645874,462.522461 207.650742,462.522461 210.967484,462.522461 
	C210.967484,454.077362 211.431229,446.070251 210.858887,438.137878 
	C209.998520,426.213684 201.410034,421.347900 190.791656,426.261414 
	C189.634018,426.797028 188.613022,427.627991 187.535187,428.317810 
	C185.783249,422.548920 181.729721,425.782562 178.000000,425.167480 
	C178.000000,433.931885 178.000000,442.208221 178.000000,451.476196 
M469.651642,434.361023 
	C474.804626,438.986877 477.448761,439.087128 482.700134,434.855682 
	C479.128693,427.329163 470.495697,422.581970 463.353241,424.344574 
	C450.570587,427.499084 447.256287,435.160461 447.122498,444.889404 
	C446.994720,454.176575 453.807587,462.200378 462.189148,463.853943 
	C471.327393,465.656769 478.994232,461.368286 482.634308,452.417786 
	C476.907562,449.186218 476.029633,449.481750 470.989960,452.754639 
	C469.050049,454.014435 465.911407,454.736725 463.770599,454.124542 
	C458.166809,452.522095 456.507751,447.824524 458.081207,440.348663 
	C459.043854,435.775116 462.297668,433.897888 469.651642,434.361023 
M232.589401,464.004486 
	C238.386917,463.694214 239.100098,462.357269 237.131805,455.300568 
	C234.931946,455.072266 232.685501,454.839111 230.369995,454.598816 
	C230.369995,447.299561 230.369995,440.404785 230.369995,433.366760 
	C232.979156,433.089722 235.230148,432.850708 237.669159,432.591705 
	C237.669159,430.066406 237.669159,427.834076 237.669159,425.364777 
	C235.001389,425.088989 232.624619,424.843292 230.250977,424.597931 
	C230.036819,421.115112 229.857834,418.204224 229.687317,415.431061 
	C226.202362,415.431061 223.301300,415.431061 220.287201,415.431061 
	C220.067291,418.770386 219.874908,421.691620 219.684769,424.578766 
	C217.637680,424.918213 216.045883,425.182190 214.345963,425.464081 
	C214.345963,427.987915 214.345963,430.223816 214.345963,432.592346 
	C216.245483,432.884125 217.836334,433.128510 220.000153,433.460907 
	C220.000153,438.900909 219.999100,444.184448 220.000366,449.468018 
	C220.003006,460.624268 220.876877,461.708405 232.589401,464.004486 
M312.640900,462.993988 
	C314.573975,462.993988 316.507019,462.993988 318.515137,462.993988 
	C318.515137,444.959442 318.515137,427.641815 318.515137,410.468811 
	C315.125397,410.468811 312.242706,410.468811 309.014923,410.468811 
	C309.014923,427.215057 308.963776,443.497894 309.131287,459.778503 
	C309.142365,460.852509 310.821808,461.909363 312.640900,462.993988 
M253.937424,461.140106 
	C253.964355,455.143829 254.405151,449.112091 253.895477,443.161804 
	C253.435989,437.797424 256.485504,436.178131 260.586334,435.095276 
	C261.824951,434.768188 263.152252,434.776855 264.567780,434.617188 
	C264.567780,431.013275 264.567780,427.658081 264.567780,423.221497 
	C260.414673,424.900421 257.004791,426.278870 253.505600,427.693420 
	C251.880096,422.675110 247.859680,425.570007 244.357483,425.356171 
	C244.357483,437.983826 244.357483,450.209534 244.357483,463.311340 
	C247.787399,462.851501 250.774612,462.451019 253.937424,461.140106 
z"/>
<path fill="#813615" opacity="1.000000" stroke="none" 
	d="
M242.933197,288.054901 
	C242.305283,285.654297 241.677368,283.253662 241.078705,280.039459 
	C240.451035,274.445679 239.794098,269.665527 239.137146,264.885345 
	C239.455673,263.139740 239.774231,261.394165 240.228455,258.893127 
	C241.191925,253.758011 242.019745,249.378296 242.847565,244.998581 
	C246.566696,237.839355 249.344055,229.949921 254.207153,223.677658 
	C263.446716,211.760757 275.653503,203.630280 290.877777,200.907944 
	C308.991760,197.668900 324.951721,202.385193 338.774567,214.349319 
	C342.417114,217.502075 345.666534,221.114685 349.038208,224.572952 
	C351.703430,227.306641 352.077026,229.707123 348.518494,232.344086 
	C344.951752,234.987122 341.845764,238.249954 338.521790,241.223236 
	C335.399109,244.016449 332.813782,243.261002 329.882111,240.517761 
	C325.558685,236.472260 321.270599,232.035873 316.157196,229.256927 
	C303.093048,222.157074 284.071991,227.402695 275.203827,239.447342 
	C269.735992,246.873703 266.310608,255.122711 266.180176,264.149384 
	C265.877228,285.117767 279.412079,302.754059 301.991608,303.828094 
	C313.460938,304.373718 323.000519,299.112183 330.032074,289.859894 
	C333.574402,285.198792 336.122284,284.500732 340.817352,288.019470 
	C344.912201,291.088348 348.743195,294.544067 352.420013,298.108215 
	C353.208771,298.872803 353.479950,301.228241 352.898163,302.191864 
	C343.677673,317.463104 330.136353,326.798737 312.650085,329.925049 
	C290.227905,333.933807 271.800262,325.985870 256.399780,309.929199 
	C254.352600,307.794769 252.528397,305.446503 250.247345,302.671967 
	C247.573563,297.449432 245.253372,292.752167 242.933197,288.054901 
z"/>
<path fill="#42797F" opacity="1.000000" stroke="none" 
	d="
M242.556122,287.884918 
	C245.253372,292.752167 247.573563,297.449432 249.951553,302.493042 
	C249.680542,302.880096 249.338394,303.001648 249.024841,302.949890 
	C233.062698,300.315948 220.487396,307.813934 207.867889,317.145325 
	C211.695343,322.456696 215.662949,327.962555 219.954010,334.059875 
	C226.115448,339.958496 232.170044,345.050140 237.727859,350.636078 
	C242.849380,355.783508 249.132004,358.487640 255.734085,360.820648 
	C256.667694,361.150543 257.518463,361.743011 258.465515,362.002289 
	C268.293976,364.693298 278.000641,368.238251 288.011688,369.729614 
	C296.738983,371.029694 305.891815,370.734222 314.712036,369.791290 
	C323.354492,368.867310 332.159790,367.164032 340.275452,364.142487 
	C353.195068,359.332336 363.905792,350.805542 374.276489,341.657257 
	C381.888733,334.942383 388.345917,327.572662 393.253204,318.883911 
	C396.071350,313.894135 397.840637,308.312042 400.082092,302.996582 
	C401.463226,297.515076 403.132355,292.087494 404.170258,286.541748 
	C407.022186,271.303375 407.258301,256.060974 403.428772,240.900955 
	C403.111023,239.643051 403.147583,238.295639 403.441711,236.468994 
	C409.176788,235.605209 414.489655,235.262268 419.802551,234.919312 
	C420.838379,239.366318 422.255920,243.763184 422.847748,248.268494 
	C426.542053,276.391937 421.334930,302.720032 406.520905,327.041168 
	C390.289459,353.689331 366.929901,371.242340 337.579956,381.170959 
	C323.004913,386.101471 307.904816,388.133423 292.699921,386.843079 
	C265.423737,384.528320 241.174454,374.489594 220.059372,356.711639 
	C207.049622,345.758057 196.984314,332.745514 189.341171,317.707367 
	C187.037781,313.175385 187.853485,309.034973 192.168488,306.545044 
	C202.285370,300.707153 212.422562,294.842072 222.924118,289.757507 
	C228.824112,286.900818 235.492126,285.849518 242.556122,287.884918 
z"/>
<path fill="#1B6067" opacity="1.000000" stroke="none" 
	d="
M399.607300,302.998718 
	C397.840637,308.312042 396.071350,313.894135 393.253204,318.883911 
	C388.345917,327.572662 381.888733,334.942383 374.276489,341.657257 
	C363.905792,350.805542 353.195068,359.332336 340.275452,364.142487 
	C332.159790,367.164032 323.354492,368.867310 314.712036,369.791290 
	C305.891815,370.734222 296.738983,371.029694 288.011688,369.729614 
	C278.000641,368.238251 268.293976,364.693298 258.465515,362.002289 
	C257.518463,361.743011 256.667694,361.150543 255.734085,360.820648 
	C249.132004,358.487640 242.849380,355.783508 237.727859,350.636078 
	C232.170044,345.050140 226.115448,339.958496 220.120392,334.357239 
	C235.210526,327.091949 250.765198,326.565552 266.609222,331.801605 
	C273.020508,333.920349 279.346985,336.415192 285.892456,337.987976 
	C315.034302,344.990356 338.012085,334.665314 356.491150,312.240387 
	C361.343140,306.352356 366.879486,302.361023 375.164093,302.890289 
	C383.123444,303.398773 391.140686,303.000580 399.607300,302.998718 
z"/>
<path fill="#F59F6A" opacity="1.000000" stroke="none" 
	d="
M401.958588,235.879181 
	C394.973328,235.919464 387.909180,236.598984 381.033600,235.750504 
	C377.163239,235.272873 372.809448,233.056702 370.057465,230.261261 
	C362.611420,222.697571 356.361908,213.939987 348.793762,206.516373 
	C338.724091,196.638977 326.120026,191.350815 312.201965,188.953583 
	C293.637390,185.756027 277.050018,190.749329 261.715759,200.803085 
	C256.770081,204.045654 252.199844,207.924026 247.755768,211.848831 
	C244.091431,215.085022 240.102951,216.632904 235.241104,216.578766 
	C230.045273,216.520889 224.844864,216.948532 219.647385,216.928299 
	C217.407440,216.919571 215.169830,216.317337 212.663071,215.636017 
	C216.445938,212.151047 220.522476,209.047165 224.542038,205.871170 
	C231.153473,200.647263 237.579376,195.175400 244.352631,190.172455 
	C254.733521,182.504837 265.340820,175.143616 275.856079,167.658051 
	C282.470917,162.949112 288.960815,158.047363 295.758972,153.619385 
	C300.225616,150.710068 305.179962,151.261078 309.381042,154.322479 
	C322.913513,164.183853 336.299713,174.246338 349.715240,184.267487 
	C359.000458,191.203339 368.017975,198.524200 377.567291,205.071915 
	C386.252045,211.026810 393.247955,218.387344 398.709290,227.232468 
	C400.296661,229.803329 400.902710,232.980118 401.958588,235.879181 
z"/>
<path fill="#BA6B3F" opacity="1.000000" stroke="none" 
	d="
M402.223663,235.965088 
	C400.902710,232.980118 400.296661,229.803329 398.709290,227.232468 
	C393.247955,218.387344 386.252045,211.026810 377.567291,205.071915 
	C368.017975,198.524200 359.000458,191.203339 349.715240,184.267487 
	C336.299713,174.246338 322.913513,164.183853 309.381042,154.322479 
	C305.179962,151.261078 300.225616,150.710068 295.758972,153.619385 
	C288.960815,158.047363 282.470917,162.949112 275.856079,167.658051 
	C265.340820,175.143616 254.733521,182.504837 244.352631,190.172455 
	C237.579376,195.175400 231.153473,200.647263 224.542038,205.871170 
	C220.522476,209.047165 216.445938,212.151047 212.253189,215.578308 
	C207.018997,217.129776 203.377197,213.903702 201.730423,210.363235 
	C200.153122,206.972137 201.056183,202.460251 204.855682,199.630798 
	C212.924347,193.622177 220.899536,187.487305 229.000366,181.522766 
	C247.613464,167.818130 265.966888,153.729263 285.024567,140.670197 
	C299.505859,130.747040 307.563782,132.279221 320.348450,141.810959 
	C341.235596,157.383591 362.440277,172.531586 383.267181,188.183182 
	C393.720978,196.039307 405.601379,202.633484 411.991547,214.750870 
	C415.234650,220.900620 417.299194,227.671890 419.849548,234.540741 
	C414.489655,235.262268 409.176788,235.605209 403.449463,236.054550 
	C402.852966,236.124298 402.670868,236.087646 402.223663,235.965088 
z"/>
<path fill="#42797F" opacity="1.000000" stroke="none" 
	d="
M242.391144,244.998840 
	C242.019745,249.378296 241.191925,253.758011 240.235397,258.502808 
	C232.941879,258.911438 225.739395,259.404358 218.628326,258.807678 
	C215.112442,258.512665 211.341965,256.796936 208.425491,254.697678 
	C201.351227,249.605545 195.157776,243.182617 187.777603,238.650421 
	C179.076706,233.307175 179.818375,225.151016 179.376907,217.183151 
	C178.983978,210.091309 179.153671,202.968384 179.070999,195.859207 
	C179.059372,194.859726 178.754868,193.773666 179.044083,192.875168 
	C180.986008,186.842148 177.602371,183.926300 173.190689,180.510910 
	C158.995529,169.521515 161.094330,149.639771 177.054382,141.543472 
	C192.176086,133.872482 209.314423,144.824570 210.053101,161.277832 
	C210.515289,171.572556 205.912735,178.511429 197.246185,183.505646 
	C195.674805,184.411179 194.193420,186.948425 194.142578,188.773392 
	C193.850250,199.265198 193.858765,209.772949 194.126251,220.266098 
	C194.177628,222.281418 195.324432,224.862549 196.842484,226.144897 
	C203.741959,231.973175 210.834656,237.595581 218.136215,242.909546 
	C220.058258,244.308380 222.951904,244.779572 225.439697,244.910446 
	C230.924408,245.198990 236.434799,244.999466 242.391144,244.998840 
M185.786987,154.001053 
	C179.600586,155.438431 177.155823,160.525742 179.761963,166.347687 
	C181.648636,170.562424 185.101776,171.583694 189.160217,170.798965 
	C193.037262,170.049316 196.197266,165.305801 195.769669,161.509277 
	C195.195221,156.408905 192.520157,154.207779 185.786987,154.001053 
z"/>
<path fill="#42797F" opacity="1.000000" stroke="none" 
	d="
M238.889511,265.254822 
	C239.794098,269.665527 240.451035,274.445679 241.059326,279.661194 
	C227.697678,280.064728 214.382721,279.915161 201.073898,280.135925 
	C199.210648,280.166870 196.771423,281.563568 195.631058,283.096161 
	C189.285355,291.624237 179.935394,295.422760 170.750366,292.760315 
	C161.942825,290.207245 155.708740,281.684143 155.144287,271.423981 
	C154.732086,263.931152 162.586136,253.199768 170.041931,251.068573 
	C180.256287,248.148880 190.648087,251.824112 195.079102,260.697510 
	C197.189926,264.924561 199.698349,266.262756 204.244659,266.096558 
	C215.700836,265.677826 227.174957,265.749298 238.889511,265.254822 
M173.109573,265.469421 
	C172.219864,266.638123 171.062943,267.689972 170.491165,268.997681 
	C168.857178,272.734711 170.586823,277.114319 174.034866,278.507141 
	C178.510727,280.315155 182.786789,278.803528 183.846130,274.313965 
	C184.398056,271.974884 183.981903,268.650299 182.614059,266.794769 
	C180.617325,264.086090 177.181290,263.396545 173.109573,265.469421 
z"/>
<path fill="#1B6067" opacity="1.000000" stroke="none" 
	d="
M349.105286,421.702545 
	C346.307465,421.228699 343.553223,420.289062 341.366760,421.028473 
	C339.567230,421.637054 337.772278,424.032288 337.169952,426.001160 
	C336.216736,429.117096 338.912140,430.154480 341.417267,430.948822 
	C346.576050,432.584656 352.017609,433.684845 356.794434,436.093109 
	C366.023102,440.745667 366.199921,454.653259 357.456726,460.253662 
	C349.096130,465.609070 336.727905,465.217346 328.915161,459.349823 
	C325.743195,456.967590 324.252930,453.349243 324.460510,448.502777 
	C326.860016,448.068237 329.263306,447.347321 331.672913,447.325623 
	C332.762817,447.315826 334.250031,448.455414 334.894653,449.487305 
	C337.533264,453.711243 346.447968,456.118195 350.131866,453.081299 
	C351.493042,451.959229 352.956818,449.520508 352.610016,448.118591 
	C352.135742,446.201385 350.297424,443.943085 348.476929,443.175598 
	C344.410828,441.461334 339.954865,440.699738 335.728821,439.330505 
	C329.425720,437.288361 326.237183,433.356659 326.005402,427.720856 
	C325.686646,419.969635 328.252716,415.334320 334.815338,412.735352 
	C341.944916,409.911865 349.035767,410.294159 355.832733,413.985748 
	C356.830688,414.527710 358.086426,415.198486 358.484863,416.126556 
	C359.637787,418.811737 361.323639,421.758911 361.031250,424.408020 
	C360.822754,426.296509 352.459351,425.219574 350.461029,423.013580 
	C350.126556,422.644348 349.751038,422.312317 349.105286,421.702545 
z"/>
<path fill="#1B6067" opacity="1.000000" stroke="none" 
	d="
M97.930084,428.237122 
	C95.055267,435.784454 94.431801,442.926056 99.765961,449.158295 
	C105.536980,455.900909 114.331757,456.006653 120.035103,449.286743 
	C122.410103,446.488434 124.825302,445.800995 128.119308,445.965393 
	C133.074768,446.212799 133.915756,447.654785 131.409073,452.079803 
	C126.520699,460.709137 115.007317,465.724396 105.436020,463.722656 
	C92.221252,460.958923 85.972122,450.704803 85.027023,441.207611 
	C83.329109,424.145782 92.731239,414.203094 105.035515,411.414886 
	C115.364922,409.074219 125.946259,413.242889 130.663605,422.359253 
	C131.442673,423.864807 130.737320,427.917175 130.305603,427.980469 
	C127.604469,428.376556 123.631386,429.110870 122.195419,427.651337 
	C113.277870,418.587372 105.864159,418.415497 97.930084,428.237122 
z"/>
<path fill="#1B6067" opacity="1.000000" stroke="none" 
	d="
M372.934692,425.005554 
	C375.141785,425.584229 376.915558,426.165436 378.445953,426.666870 
	C383.162140,425.986542 388.427521,423.872009 393.053497,424.833557 
	C403.621277,427.030090 408.326111,438.295746 405.220520,450.685608 
	C402.639160,460.983978 391.108246,468.757965 379.022583,460.402191 
	C379.022583,463.607300 379.020477,466.298920 379.022980,468.990509 
	C379.030975,477.539642 378.770081,477.755859 369.461029,476.535706 
	C369.316437,475.362915 369.027069,474.095551 369.024231,472.827545 
	C368.991852,458.362183 369.022644,443.896667 368.984131,429.431366 
	C368.977448,426.924896 368.949188,424.595184 372.934692,425.005554 
M395.136414,440.547180 
	C394.546082,436.528198 392.392273,433.133514 388.348694,433.312469 
	C385.534332,433.437042 382.197357,435.469208 380.283112,437.679260 
	C378.866913,439.314270 379.076355,442.607422 379.069397,445.163269 
	C379.052673,451.308899 381.363861,454.435791 385.880829,454.966431 
	C390.445679,455.502655 394.157532,452.902344 395.592133,447.593292 
	C396.125214,445.620483 395.606262,443.363403 395.136414,440.547180 
z"/>
<path fill="#1B6067" opacity="1.000000" stroke="none" 
	d="
M420.224640,440.978455 
	C424.966370,440.193207 429.298279,439.445679 433.657104,438.693512 
	C432.149200,432.498199 426.230072,430.811646 421.615814,434.897797 
	C417.415649,438.617249 417.218048,438.663361 411.467712,437.266602 
	C410.956879,428.927124 420.851166,423.980560 428.114044,424.038818 
	C436.878052,424.109131 442.976013,430.209290 442.990936,438.591125 
	C443.004272,446.075836 442.954315,453.560760 442.898743,461.045319 
	C442.895355,461.502655 442.597382,461.957825 442.144012,463.243042 
	C439.463379,462.807709 436.696259,462.277649 433.905334,461.949860 
	C432.956726,461.838440 431.954102,462.304169 430.966064,462.390839 
	C426.619385,462.772186 422.057922,464.101501 417.970367,463.229828 
	C412.097900,461.977539 409.963409,458.058868 410.001617,452.256622 
	C410.041443,446.213074 412.155579,443.791412 420.224640,440.978455 
M420.077576,452.439392 
	C421.698883,457.501160 426.086731,456.673676 429.164734,455.545776 
	C432.843506,454.197662 434.914368,450.767639 433.418213,446.336121 
	C430.752533,446.583893 428.108795,446.298981 425.937897,447.179688 
	C423.737549,448.072357 422.004517,450.116913 420.077576,452.439392 
z"/>
<path fill="#1B6067" opacity="1.000000" stroke="none" 
	d="
M292.387939,425.233887 
	C303.683411,431.041931 305.452301,440.685699 303.279449,450.396698 
	C300.944122,460.833679 289.984619,465.941193 280.513489,463.663422 
	C269.038879,460.903778 264.774231,449.934662 266.261810,440.798645 
	C268.345917,427.998718 279.875519,421.269196 292.387939,425.233887 
M286.264771,433.172882 
	C281.607300,433.351715 278.026794,435.621521 277.292542,440.120819 
	C276.546997,444.689056 275.986267,449.647003 280.564972,453.278259 
	C283.903259,455.925720 287.186523,455.613861 290.021210,453.233215 
	C293.520447,450.294403 294.812378,446.029755 293.842255,441.583099 
	C293.031494,437.866821 291.501770,434.267273 286.264771,433.172882 
z"/>
<path fill="#1B6067" opacity="1.000000" stroke="none" 
	d="
M488.677551,456.091736 
	C484.433441,447.378845 483.656769,438.855194 489.545685,431.126099 
	C495.016815,423.945312 503.866089,422.393982 511.699646,426.329193 
	C518.851501,429.921936 522.143127,437.533295 520.255554,446.888733 
	C512.458435,446.888733 504.538757,446.888733 496.619049,446.888733 
	C496.233826,447.368408 495.848633,447.848083 495.463440,448.327759 
	C497.274963,450.504974 498.691284,453.594635 501.010712,454.599213 
	C503.267883,455.576843 507.779083,455.491699 508.981445,454.001740 
	C512.894714,449.152374 516.415039,451.569031 520.288757,453.205109 
	C516.265320,465.063812 498.522095,468.984283 488.677551,456.091736 
M497.586029,436.010773 
	C497.128845,437.151733 496.671661,438.292725 496.106567,439.702972 
	C501.266388,439.702972 505.853607,439.702972 510.496277,439.702972 
	C509.070648,432.500061 503.589752,430.711212 497.586029,436.010773 
z"/>
<path fill="#1B6067" opacity="1.000000" stroke="none" 
	d="
M156.523132,424.065277 
	C173.007965,428.063934 176.266678,444.392578 170.117340,454.930908 
	C166.095337,461.823547 160.162415,464.328918 152.757156,463.932373 
	C145.748108,463.557068 139.853363,460.797607 136.999405,453.860626 
	C130.376770,437.763489 139.895615,423.588684 156.523132,424.065277 
M157.815842,453.606415 
	C158.763962,452.670990 159.824158,451.823547 160.640091,450.784332 
	C163.616180,446.993744 164.059616,442.519806 161.552704,438.750946 
	C159.911850,436.284119 156.591446,433.862305 153.774750,433.530548 
	C150.510925,433.146118 147.333282,435.269592 145.870132,439.134216 
	C144.022446,444.014587 144.897980,448.376373 147.906754,452.189087 
	C150.250092,455.158508 153.605164,456.030396 157.815842,453.606415 
z"/>
<path fill="#1A6067" opacity="1.000000" stroke="none" 
	d="
M178.000000,450.980377 
	C178.000000,442.208221 178.000000,433.931885 178.000000,425.167480 
	C181.729721,425.782562 185.783249,422.548920 187.535187,428.317810 
	C188.613022,427.627991 189.634018,426.797028 190.791656,426.261414 
	C201.410034,421.347900 209.998520,426.213684 210.858887,438.137878 
	C211.431229,446.070251 210.967484,454.077362 210.967484,462.522461 
	C207.650742,462.522461 204.645874,462.522461 200.996841,462.522461 
	C200.996841,455.422943 200.914841,448.480652 201.027267,441.541534 
	C201.095963,437.301697 200.152771,433.791748 195.338226,433.115479 
	C191.537598,432.581665 188.207993,436.327515 187.984161,441.412720 
	C187.788757,445.852234 188.055756,450.310028 188.009018,454.758575 
	C187.916351,463.581238 187.852722,463.609161 178.000000,462.563446 
	C178.000000,458.948212 178.000000,455.212219 178.000000,450.980377 
z"/>
<path fill="#1B6067" opacity="1.000000" stroke="none" 
	d="
M469.266479,434.239471 
	C462.297668,433.897888 459.043854,435.775116 458.081207,440.348663 
	C456.507751,447.824524 458.166809,452.522095 463.770599,454.124542 
	C465.911407,454.736725 469.050049,454.014435 470.989960,452.754639 
	C476.029633,449.481750 476.907562,449.186218 482.634308,452.417786 
	C478.994232,461.368286 471.327393,465.656769 462.189148,463.853943 
	C453.807587,462.200378 446.994720,454.176575 447.122498,444.889404 
	C447.256287,435.160461 450.570587,427.499084 463.353241,424.344574 
	C470.495697,422.581970 479.128693,427.329163 482.700134,434.855682 
	C477.448761,439.087128 474.804626,438.986877 469.266479,434.239471 
z"/>
<path fill="#1B6067" opacity="1.000000" stroke="none" 
	d="
M232.153961,464.009369 
	C220.876877,461.708405 220.003006,460.624268 220.000366,449.468018 
	C219.999100,444.184448 220.000153,438.900909 220.000153,433.460907 
	C217.836334,433.128510 216.245483,432.884125 214.345963,432.592346 
	C214.345963,430.223816 214.345963,427.987915 214.345963,425.464081 
	C216.045883,425.182190 217.637680,424.918213 219.684769,424.578766 
	C219.874908,421.691620 220.067291,418.770386 220.287201,415.431061 
	C223.301300,415.431061 226.202362,415.431061 229.687317,415.431061 
	C229.857834,418.204224 230.036819,421.115112 230.250977,424.597931 
	C232.624619,424.843292 235.001389,425.088989 237.669159,425.364777 
	C237.669159,427.834076 237.669159,430.066406 237.669159,432.591705 
	C235.230148,432.850708 232.979156,433.089722 230.369995,433.366760 
	C230.369995,440.404785 230.369995,447.299561 230.369995,454.598816 
	C232.685501,454.839111 234.931946,455.072266 237.131805,455.300568 
	C239.100098,462.357269 238.386917,463.694214 232.153961,464.009369 
z"/>
<path fill="#1B6067" opacity="1.000000" stroke="none" 
	d="
M312.183075,462.984100 
	C310.821808,461.909363 309.142365,460.852509 309.131287,459.778503 
	C308.963776,443.497894 309.014923,427.215057 309.014923,410.468811 
	C312.242706,410.468811 315.125397,410.468811 318.515137,410.468811 
	C318.515137,427.641815 318.515137,444.959442 318.515137,462.993988 
	C316.507019,462.993988 314.573975,462.993988 312.183075,462.984100 
z"/>
<path fill="#1B6067" opacity="1.000000" stroke="none" 
	d="
M253.849609,461.595337 
	C250.774612,462.451019 247.787399,462.851501 244.357483,463.311340 
	C244.357483,450.209534 244.357483,437.983826 244.357483,425.356171 
	C247.859680,425.570007 251.880096,422.675110 253.505600,427.693420 
	C257.004791,426.278870 260.414673,424.900421 264.567780,423.221497 
	C264.567780,427.658081 264.567780,431.013275 264.567780,434.617188 
	C263.152252,434.776855 261.824951,434.768188 260.586334,435.095276 
	C256.485504,436.178131 253.435989,437.797424 253.895477,443.161804 
	C254.405151,449.112091 253.964355,455.143829 253.849609,461.595337 
z"/>
<path fill="#000000" opacity="1.000000" stroke="none" 
	d="
M186.203033,153.990448 
	C192.520157,154.207779 195.195221,156.408905 195.769669,161.509277 
	C196.197266,165.305801 193.037262,170.049316 189.160217,170.798965 
	C185.101776,171.583694 181.648636,170.562424 179.761963,166.347687 
	C177.155823,160.525742 179.600586,155.438431 186.203033,153.990448 
z"/>
<path fill="#000000" opacity="1.000000" stroke="none" 
	d="
M173.453262,265.289032 
	C177.181290,263.396545 180.617325,264.086090 182.614059,266.794769 
	C183.981903,268.650299 184.398056,271.974884 183.846130,274.313965 
	C182.786789,278.803528 178.510727,280.315155 174.034866,278.507141 
	C170.586823,277.114319 168.857178,272.734711 170.491165,268.997681 
	C171.062943,267.689972 172.219864,266.638123 173.453262,265.289032 
z"/>
<path fill="#000000" opacity="1.000000" stroke="none" 
	d="
M395.351746,440.891571 
	C395.606262,443.363403 396.125214,445.620483 395.592133,447.593292 
	C394.157532,452.902344 390.445679,455.502655 385.880829,454.966431 
	C381.363861,454.435791 379.052673,451.308899 379.069397,445.163269 
	C379.076355,442.607422 378.866913,439.314270 380.283112,437.679260 
	C382.197357,435.469208 385.534332,433.437042 388.348694,433.312469 
	C392.392273,433.133514 394.546082,436.528198 395.351746,440.891571 
z"/>
<path fill="#000000" opacity="1.000000" stroke="none" 
	d="
M420.072205,452.048157 
	C422.004517,450.116913 423.737549,448.072357 425.937897,447.179688 
	C428.108795,446.298981 430.752533,446.583893 433.418213,446.336121 
	C434.914368,450.767639 432.843506,454.197662 429.164734,455.545776 
	C426.086731,456.673676 421.698883,457.501160 420.072205,452.048157 
z"/>
<path fill="#000000" opacity="1.000000" stroke="none" 
	d="
M286.617859,433.322021 
	C291.501770,434.267273 293.031494,437.866821 293.842255,441.583099 
	C294.812378,446.029755 293.520447,450.294403 290.021210,453.233215 
	C287.186523,455.613861 283.903259,455.925720 280.564972,453.278259 
	C275.986267,449.647003 276.546997,444.689056 277.292542,440.120819 
	C278.026794,435.621521 281.607300,433.351715 286.617859,433.322021 
z"/>
<path fill="#000000" opacity="1.000000" stroke="none" 
	d="
M497.789734,435.677338 
	C503.589752,430.711212 509.070648,432.500061 510.496277,439.702972 
	C505.853607,439.702972 501.266388,439.702972 496.106567,439.702972 
	C496.671661,438.292725 497.128845,437.151733 497.789734,435.677338 
z"/>
<path fill="#000000" opacity="1.000000" stroke="none" 
	d="
M157.533356,453.871826 
	C153.605164,456.030396 150.250092,455.158508 147.906754,452.189087 
	C144.897980,448.376373 144.022446,444.014587 145.870132,439.134216 
	C147.333282,435.269592 150.510925,433.146118 153.774750,433.530548 
	C156.591446,433.862305 159.911850,436.284119 161.552704,438.750946 
	C164.059616,442.519806 163.616180,446.993744 160.640091,450.784332 
	C159.824158,451.823547 158.763962,452.670990 157.533356,453.871826 
z"/>
</svg>