<?xml version="1.0" encoding="utf-8"?>
<svg version="1.1" id="Layer_1" xmlns="http://www.w3.org/2000/svg" x="0px" y="0px" width="100%" viewBox="0 0 600 600" enable-background="new 0 0 600 600">
  <path fill="#1B6067" opacity="1.000000" stroke="none" d="M 473.342 342.407 C 470.931 349.656 474.35 357.43 470.505 364.238 C 463.809 376.094 415.912 420.898 398.284 427.461 C 387.21 431.584 327.854 443.428 315.946 441.655 C 302.286 439.62 249.163 416.526 242.175 409.502 C 234.592 401.881 227.738 396.106 228.238 383.772 C 248.828 373.859 270.052 373.14 291.67 380.285 C 300.418 383.176 309.05 386.58 317.981 388.726 C 357.744 398.28 389.095 384.192 414.309 353.594 C 420.93 345.561 428.484 340.115 439.787 340.837 C 450.648 341.531 461.79 342.409 473.342 342.407 Z" style=""/>
  <path fill="#42797F" opacity="1.000000" stroke="none" d="M 262.606 321.16 C 266.286 327.801 272.628 333.31 275.873 340.192 C 275.503 340.72 268.111 340.909 267.677 340.918 C 212.681 342.069 213.294 340.776 205.708 344.582 C 198.05 352.281 244.152 398.926 252.263 405.983 C 259.756 412.502 267.823 416.696 276.831 419.88 C 278.105 420.33 305.805 430.236 320.873 432.036 C 332.827 433.464 345.269 433.406 357.304 432.12 C 369.096 430.859 381.11 428.535 392.184 424.412 C 409.812 417.849 424.426 406.215 438.576 393.732 C 448.963 384.57 457.773 374.515 464.469 362.659 C 468.314 355.851 470.728 348.234 473.787 340.982 C 475.671 333.503 477.949 326.097 479.365 318.53 C 483.256 297.738 483.578 276.941 478.353 256.256 C 477.92 254.539 476.275 249.683 474.983 246.343 C 483.31 239.142 493.31 245.097 500.411 246.4 C 501.825 252.468 504.042 260.161 504.849 266.308 C 509.89 304.681 502.785 340.604 482.572 373.789 C 460.425 410.149 428.552 434.1 388.506 447.647 C 368.619 454.374 348.016 457.147 327.269 455.386 C 290.052 452.228 256.966 438.53 228.155 414.273 C 210.404 399.328 197.539 381.573 186.242 361.054 C 182.896 354.977 171.327 322.873 182.644 322.774 C 217.464 322.469 231.952 322.901 262.606 321.16 Z" style=""/>
  <path fill="#F59F6A" opacity="1.000000" stroke="none" d="M 476.347 249.404 C 466.816 249.459 457.177 250.386 447.796 249.228 C 442.515 248.576 436.575 245.552 432.82 241.738 C 422.66 231.418 414.133 219.469 403.807 209.34 C 390.067 195.862 372.869 188.647 353.879 185.376 C 328.549 181.013 305.916 187.826 284.993 201.544 C 278.245 205.968 272.009 211.26 265.945 216.615 C 260.946 221.031 255.504 223.143 248.87 223.069 C 241.78 222.99 234.685 223.574 227.593 223.546 C 224.537 223.534 218.912 220.897 215.491 219.968 C 220.653 215.213 322.168 143.206 331.443 137.164 C 337.538 133.195 344.298 133.947 350.03 138.124 C 368.494 151.579 464.462 225.537 471.914 237.606 C 474.08 241.113 474.906 245.448 476.347 249.404 Z" style=""/>
  <path fill="#BA6B3F" opacity="1.000000" stroke="none" d="M 475.671 249.521 C 473.868 245.448 474.08 241.113 471.914 237.606 C 464.462 225.537 368.494 151.579 350.03 138.124 C 344.298 133.947 337.538 133.195 331.443 137.164 C 322.168 143.206 243.293 201.331 234.272 208.459 C 228.787 212.793 223.225 217.028 217.504 221.704 C 210.362 223.821 205.393 219.419 203.146 214.588 C 200.994 209.961 202.226 203.805 207.411 199.945 C 218.42 191.746 290.794 137.314 316.797 119.496 C 336.556 105.956 347.55 108.047 364.994 121.052 C 393.494 142.3 422.426 162.969 450.844 184.325 C 465.107 195.044 481.318 204.042 490.037 220.575 C 494.462 228.966 497.279 238.205 500.758 247.577 C 493.445 248.562 486.196 249.03 478.381 249.643 C 477.567 249.738 476.281 249.688 475.671 249.521 Z" style=""/>
  <path fill="#42797F" opacity="1.000000" stroke="none" d="M 264.828 262.906 C 264.321 268.881 259.863 274.857 258.558 281.331 C 248.607 281.889 235.905 281.502 226.203 280.688 C 221.405 280.286 216.261 277.945 212.281 275.08 C 202.629 268.132 194.178 259.369 184.108 253.185 C 172.236 245.894 173.248 234.766 172.646 223.894 C 172.11 214.217 172.341 204.499 172.229 194.798 C 172.213 193.435 171.797 191.953 172.192 190.727 C 174.842 182.495 170.225 178.517 164.205 173.856 C 144.837 158.862 147.7 131.734 169.477 120.687 C 190.11 110.221 213.494 125.164 214.502 147.614 C 215.133 161.661 208.853 171.128 197.028 177.943 C 194.884 179.178 192.862 182.64 192.793 185.13 C 192.394 199.446 192.406 213.783 192.771 228.1 C 192.841 230.85 194.406 234.372 196.477 236.122 C 205.891 244.074 215.569 251.746 225.531 258.996 C 228.154 260.905 232.102 261.548 235.496 261.726 M 181.392 137.685 C 172.951 139.646 169.616 146.588 173.171 154.531 C 175.746 160.282 180.457 161.676 185.995 160.605 C 191.285 159.582 195.597 153.11 195.013 147.93 C 194.229 140.971 190.579 137.967 181.392 137.685 Z" style=""/>
  <path fill="#42797F" opacity="1.000000" stroke="none" d="M 258.732 289.617 C 259.966 295.635 258.308 302.026 259.138 309.142 C 240.906 309.692 195.41 309.488 177.251 309.79 C 174.708 309.832 169.38 311.738 167.824 313.829 C 159.166 325.465 146.408 330.648 133.876 327.015 C 121.858 323.531 113.352 311.902 112.582 297.903 C 112.02 287.679 122.736 273.037 132.909 270.129 C 146.846 266.145 161.025 271.16 167.071 283.267 C 169.951 289.034 175.374 290.86 181.577 290.634 M 137.095 289.778 C 135.881 291.373 131.628 293.254 131.739 297.712 C 131.878 303.276 133.652 305.667 138.357 307.567 C 144.464 310.034 150.299 307.972 151.744 301.846 C 152.497 298.654 151.929 294.118 150.063 291.586 C 147.339 287.89 142.65 286.95 137.095 289.778 Z" style=""/>
  <path fill="#813615" opacity="1.000000" stroke="none" d="M 259.365 320.595 C 258.509 317.319 257.652 314.044 256.835 309.658 C 255.979 302.026 255.082 295.503 254.186 288.981 C 254.62 286.599 255.055 284.217 255.675 280.805 C 256.989 273.798 258.119 267.822 259.248 261.847 C 264.323 252.078 268.113 241.313 274.748 232.755 C 287.355 216.495 304.01 205.402 324.783 201.687 C 349.499 197.268 371.275 203.703 390.136 220.027 C 395.106 224.329 399.54 229.258 404.14 233.977 C 407.777 237.707 408.286 240.982 403.431 244.58 C 398.564 248.186 394.326 252.638 389.791 256.695 C 385.53 260.506 382.003 259.476 378.003 255.733 C 372.103 250.213 366.253 244.16 359.276 240.368 C 341.45 230.68 315.497 237.838 303.397 254.272 C 295.936 264.405 291.263 275.66 291.085 287.977 C 290.671 316.587 309.139 340.651 339.947 342.116 C 355.597 342.861 368.613 335.682 378.207 323.057 C 383.041 316.698 386.517 315.745 392.923 320.546 C 398.51 324.734 403.738 329.449 408.754 334.312 C 409.831 335.355 410.201 338.569 409.407 339.884 C 396.826 360.721 378.349 373.459 354.49 377.724 C 323.896 383.194 298.753 372.349 277.74 350.441 C 274.947 347.529 272.457 344.325 269.345 340.539 C 265.697 333.413 262.531 327.004 259.365 320.595 Z" style=""/>
</svg>